<svg width="30" height="30" viewBox="0 0 30 30" fill="none" xmlns="http://www.w3.org/2000/svg">
<path d="M14.7109 1.95624C22.007 1.95629 27.9219 7.87106 27.9219 15.1672C27.9218 22.4632 22.007 28.3781 14.7109 28.3781C7.41482 28.3781 1.50005 22.4633 1.5 15.1672C1.5 7.87103 7.41479 1.95624 14.7109 1.95624Z" stroke="white" stroke-width="3"/>
<path d="M24.0521 5.82539C25.2225 6.99576 25.6615 9.05449 24.9595 11.7847C24.2671 14.4771 22.513 17.5374 19.797 20.2534C17.081 22.9694 14.0207 24.7235 11.3283 25.4158C8.59811 26.1179 6.53937 25.6788 5.369 24.5085C4.19884 23.3381 3.76034 21.2799 4.46233 18.5499C5.15468 15.8574 6.90871 12.7972 9.62477 10.0812C12.3408 7.36511 15.401 5.6111 18.0935 4.91872C20.8235 4.21672 22.8817 4.65523 24.0521 5.82539Z" stroke="white" stroke-width="3"/>
<path d="M5.36872 5.8259C6.53909 4.65553 8.59783 4.21649 11.328 4.91854C14.0204 5.61094 17.0807 7.36496 19.7967 10.081C22.5128 12.797 24.2668 15.8572 24.9592 18.5497C25.6612 21.2799 25.2222 23.3386 24.0518 24.509C22.8814 25.6791 20.8232 26.1177 18.0932 25.4157C15.4007 24.7233 12.3406 22.9693 9.62448 20.2532C6.90844 17.5372 5.15443 14.477 4.46205 11.7845C3.76005 9.05452 4.19856 6.99632 5.36872 5.8259Z" stroke="white" stroke-width="3"/>
</svg>
