<svg width="28.000000" height="28.094727" viewBox="0 0 28 28.0947" fill="none" xmlns="http://www.w3.org/2000/svg" xmlns:xlink="http://www.w3.org/1999/xlink">
	<desc>
			Created with Pixso.
	</desc>
	<defs/>
	<path id="Vector" d="M26.03 1.84C25.41 1.23 24.67 0.75 23.86 0.43C23.05 0.11 22.18 -0.03 21.31 0C19.64 0.06 18.05 0.76 16.88 1.95C15.71 3.14 15.03 4.74 15 6.41C14.97 7.83 15.42 9.22 16.27 10.35C16.39 10.53 19.31 14.59 20.2 15.83C20.35 16.02 20.53 16.18 20.75 16.29C20.97 16.4 21.21 16.46 21.45 16.46C21.69 16.46 21.93 16.4 22.15 16.3C22.37 16.19 22.56 16.03 22.71 15.84C22.71 15.84 26.56 10.57 26.68 10.42C27.53 9.29 27.99 7.91 28 6.5C28 5.63 27.83 4.77 27.49 3.97C27.15 3.17 26.65 2.44 26.03 1.84ZM21.5 9.09C21 9.09 20.52 8.94 20.11 8.67C19.7 8.39 19.37 8 19.19 7.55C19 7.09 18.95 6.59 19.04 6.1C19.14 5.62 19.38 5.17 19.73 4.82C20.08 4.47 20.52 4.23 21.01 4.14C21.49 4.04 22 4.09 22.45 4.28C22.91 4.47 23.3 4.79 23.57 5.2C23.85 5.61 24 6.1 24 6.59C23.99 7.25 23.73 7.89 23.26 8.36C22.79 8.83 22.16 9.09 21.5 9.09ZM5 25.59C5 26.08 4.85 26.57 4.57 26.98C4.3 27.39 3.91 27.71 3.45 27.9C3 28.09 2.49 28.14 2.01 28.04C1.52 27.95 1.08 27.71 0.73 27.36C0.38 27.01 0.14 26.56 0.04 26.08C-0.05 25.59 0 25.09 0.19 24.63C0.37 24.18 0.7 23.79 1.11 23.51C1.52 23.24 2 23.09 2.5 23.09C3.16 23.09 3.79 23.35 4.26 23.82C4.73 24.29 4.99 24.93 5 25.59ZM16 23.09C15.99 23.88 15.68 24.65 15.12 25.21C14.55 25.77 13.79 26.09 13 26.09L6.94 26.09C7.04 25.41 6.97 24.73 6.72 24.09L13 24.09C13.26 24.09 13.51 23.98 13.7 23.8C13.89 23.61 14 23.35 14 23.09C14 22.82 13.89 22.57 13.7 22.38C13.51 22.2 13.26 22.09 13 22.09L9 22.09C8.2 22.09 7.44 21.77 6.87 21.21C6.31 20.65 6 19.88 6 19.09L6 18.09C6 17.29 6.31 16.53 6.87 15.97C7.44 15.41 8.2 15.09 9 15.09L17.21 15.09C17.85 15.96 18.29 16.64 18.67 17.09L9 17.09C8.73 17.09 8.48 17.2 8.29 17.38C8.1 17.57 8 17.82 8 18.09L8 19.09C8 19.35 8.1 19.61 8.29 19.8C8.48 19.98 8.73 20.09 9 20.09L13 20.09C13.79 20.09 14.55 20.41 15.12 20.97C15.68 21.53 15.99 22.29 16 23.09Z" fill="#000000" fill-opacity="1.000000" fill-rule="nonzero"/>
</svg>
